<svg xmlns="http://www.w3.org/2000/svg" xmlns:xlink="http://www.w3.org/1999/xlink" width="278" zoomAndPan="magnify" viewBox="0 0 208.5 113.999999" height="152" preserveAspectRatio="xMidYMid meet" version="1.0"><defs><g/><clipPath id="e1ff7189b9"><path d="M 76.769531 37.101562 L 108.195312 37.101562 L 108.195312 79 L 76.769531 79 Z M 76.769531 37.101562 " clip-rule="nonzero"/></clipPath><clipPath id="cf9d817763"><path d="M 87 86 L 99 86 L 99 88.726562 L 87 88.726562 Z M 87 86 " clip-rule="nonzero"/></clipPath></defs><g fill="#ffffff" fill-opacity="1"><g transform="translate(28.597009, 71.139645)"><g><path d="M 4.921875 0 L 4.921875 -33.109375 L 9.40625 -33.109375 L 9.40625 0 Z M 4.921875 0 "/></g></g></g><g fill="#ffffff" fill-opacity="1"><g transform="translate(42.929116, 71.139645)"><g><path d="M 4.921875 0 L 4.921875 -29.703125 L 8.328125 -33.109375 L 27.671875 -33.109375 L 31.125 -29.703125 L 31.125 0 L 26.625 0 L 26.625 -27.671875 L 25.109375 -29.140625 L 10.875 -29.140625 L 9.40625 -27.671875 L 9.40625 0 Z M 4.921875 0 "/></g></g></g><g fill="#ffffff" fill-opacity="1"><g transform="translate(78.925533, 71.139645)"><g/></g></g><g fill="#ffffff" fill-opacity="1"><g transform="translate(92.831935, 71.139645)"><g/></g></g><g fill="#ffffff" fill-opacity="1"><g transform="translate(106.749433, 71.139645)"><g><path d="M 13.953125 0 L 4.921875 -9.03125 L 4.921875 -33.109375 L 9.40625 -33.109375 L 9.40625 -10.546875 L 15.984375 -3.96875 L 20.046875 -3.96875 L 26.625 -10.546875 L 26.625 -33.109375 L 31.125 -33.109375 L 31.125 -9.03125 L 22.046875 0 Z M 13.953125 0 "/></g></g></g><g fill="#ffffff" fill-opacity="1"><g transform="translate(142.745257, 71.139645)"><g><path d="M 4.921875 0 L 4.921875 -29.703125 L 8.328125 -33.109375 L 27.671875 -33.109375 L 31.125 -29.703125 L 31.125 0 L 26.625 0 L 26.625 -11.15625 L 9.40625 -11.15625 L 9.40625 0 Z M 9.40625 -15.140625 L 26.625 -15.140625 L 26.625 -27.671875 L 25.109375 -29.140625 L 10.875 -29.140625 L 9.40625 -27.671875 Z M 9.40625 -15.140625 "/></g></g></g><g fill="#ffffff" fill-opacity="1"><g transform="translate(103.68262, 85.080982)"><g><path d="M 2.046875 0 L 1.125 -0.9375 L 1.125 -3.203125 L 1.609375 -3.6875 L 5.53125 -3.6875 L 5.53125 -5.046875 L 5.125 -5.4375 L 2.640625 -5.4375 L 2.25 -5.046875 L 2.25 -4.34375 L 1.125 -4.34375 L 1.125 -5.484375 L 2.046875 -6.40625 L 5.71875 -6.40625 L 6.65625 -5.484375 L 6.65625 -0.9375 L 5.765625 0 Z M 2.25 -1.390625 L 2.640625 -0.96875 L 5.125 -0.96875 L 5.53125 -1.390625 L 5.53125 -2.859375 L 2.453125 -2.859375 L 2.25 -2.65625 Z M 2.25 -1.390625 "/></g></g></g><g fill="#ffffff" fill-opacity="1"><g transform="translate(111.456902, 85.080982)"><g><path d="M 2.25 0 L 1.328125 -0.9375 L 1.328125 -6.40625 L 2.453125 -6.40625 L 2.453125 -1.390625 L 2.859375 -0.96875 L 5.34375 -0.96875 L 5.75 -1.390625 L 5.75 -6.40625 L 6.859375 -6.40625 L 6.859375 -0.9375 L 5.9375 0 Z M 2.25 0 "/></g></g></g><g fill="#ffffff" fill-opacity="1"><g transform="translate(119.654538, 85.080982)"><g><path d="M 2.25 0 L 1.328125 -0.9375 L 1.328125 -5.4375 L 0.375 -5.4375 L 0.375 -6.40625 L 1.328125 -6.40625 L 1.328125 -7.703125 L 2.453125 -7.703125 L 2.453125 -6.40625 L 4.375 -6.40625 L 4.375 -5.4375 L 2.453125 -5.4375 L 2.453125 -1.390625 L 2.859375 -0.96875 L 4.375 -0.96875 L 4.375 0 Z M 2.25 0 "/></g></g></g><g fill="#ffffff" fill-opacity="1"><g transform="translate(124.580816, 85.080982)"><g><path d="M 2.046875 0 L 1.125 -0.9375 L 1.125 -5.484375 L 2.046875 -6.40625 L 5.71875 -6.40625 L 6.65625 -5.484375 L 6.65625 -0.9375 L 5.6875 0 Z M 2.25 -1.390625 L 2.640625 -0.96875 L 5.125 -0.96875 L 5.53125 -1.390625 L 5.53125 -5.046875 L 5.125 -5.4375 L 2.640625 -5.4375 L 2.25 -5.046875 Z M 2.25 -1.390625 "/></g></g></g><g fill="#ffffff" fill-opacity="1"><g transform="translate(132.355098, 85.080982)"><g><path d="M 4.890625 0 L 4.890625 -5.046875 L 4.484375 -5.4375 L 2.859375 -5.4375 L 2.453125 -5.046875 L 2.453125 0 L 1.328125 0 L 1.328125 -5.484375 L 2.25 -6.40625 L 4.734375 -6.40625 L 5.4375 -5.703125 L 6.140625 -6.40625 L 8.640625 -6.40625 L 9.5625 -5.484375 L 9.5625 0 L 8.4375 0 L 8.4375 -5.046875 L 8.03125 -5.4375 L 6.40625 -5.4375 L 6 -5.046875 L 6 0 Z M 4.890625 0 "/></g></g></g><g fill="#ffffff" fill-opacity="1"><g transform="translate(143.246793, 85.080982)"><g><path d="M 2.046875 0 L 1.125 -0.9375 L 1.125 -3.203125 L 1.609375 -3.6875 L 5.53125 -3.6875 L 5.53125 -5.046875 L 5.125 -5.4375 L 2.640625 -5.4375 L 2.25 -5.046875 L 2.25 -4.34375 L 1.125 -4.34375 L 1.125 -5.484375 L 2.046875 -6.40625 L 5.71875 -6.40625 L 6.65625 -5.484375 L 6.65625 -0.9375 L 5.765625 0 Z M 2.25 -1.390625 L 2.640625 -0.96875 L 5.125 -0.96875 L 5.53125 -1.390625 L 5.53125 -2.859375 L 2.453125 -2.859375 L 2.25 -2.65625 Z M 2.25 -1.390625 "/></g></g></g><g fill="#ffffff" fill-opacity="1"><g transform="translate(151.021075, 85.080982)"><g><path d="M 2.046875 0 L 1.125 -0.9375 L 1.125 -5.484375 L 2.046875 -6.40625 L 5.765625 -6.40625 L 6.703125 -5.484375 L 6.703125 -4.203125 L 5.578125 -4.203125 L 5.578125 -5.046875 L 5.171875 -5.4375 L 2.640625 -5.4375 L 2.25 -5.046875 L 2.25 -1.390625 L 2.640625 -0.96875 L 5.171875 -0.96875 L 5.578125 -1.390625 L 5.578125 -2.21875 L 6.703125 -2.21875 L 6.703125 -0.9375 L 5.765625 0 L 4.265625 0 L 4.265625 0.4375 L 4.671875 0.4375 L 5.125 0.890625 L 5.125 1.984375 L 4.5 2.609375 L 3.328125 2.609375 L 2.703125 1.984375 L 2.703125 1.328125 L 3.34375 1.328125 L 3.34375 1.734375 L 3.59375 1.96875 L 4.234375 1.96875 L 4.484375 1.734375 L 4.484375 1.125 L 4.25 0.890625 L 3.546875 0.890625 L 3.546875 0 Z M 2.046875 0 "/></g></g></g><g fill="#ffffff" fill-opacity="1"><g transform="translate(158.846674, 85.080982)"><g><path d="M 2.046875 0 L 1.125 -0.9375 L 1.125 -3.203125 L 1.609375 -3.6875 L 5.53125 -3.6875 L 5.53125 -5.046875 L 5.125 -5.4375 L 2.640625 -5.4375 L 2.25 -5.046875 L 2.25 -4.34375 L 1.125 -4.34375 L 1.125 -5.484375 L 2.046875 -6.40625 L 5.71875 -6.40625 L 6.65625 -5.484375 L 6.65625 -0.9375 L 5.765625 0 Z M 2.046875 -7.703125 L 2.046875 -8.421875 L 2.828125 -9.0625 L 4.625 -8.453125 L 4.875 -8.65625 L 4.875 -8.953125 L 5.796875 -8.953125 L 5.796875 -8.21875 L 5.0625 -7.5625 L 3.21875 -8.203125 L 2.96875 -7.984375 L 2.96875 -7.703125 Z M 2.25 -1.390625 L 2.640625 -0.96875 L 5.125 -0.96875 L 5.53125 -1.390625 L 5.53125 -2.859375 L 2.453125 -2.859375 L 2.25 -2.65625 Z M 2.25 -1.390625 "/></g></g></g><g fill="#ffffff" fill-opacity="1"><g transform="translate(166.620957, 85.080982)"><g><path d="M 2.046875 0 L 1.125 -0.9375 L 1.125 -5.484375 L 2.046875 -6.40625 L 5.71875 -6.40625 L 6.65625 -5.484375 L 6.65625 -0.9375 L 5.6875 0 Z M 2.25 -1.390625 L 2.640625 -0.96875 L 5.125 -0.96875 L 5.53125 -1.390625 L 5.53125 -5.046875 L 5.125 -5.4375 L 2.640625 -5.4375 L 2.25 -5.046875 Z M 2.25 -1.390625 "/></g></g></g><g clip-path="url(#e1ff7189b9)"><path fill="#145da0" d="M 92.628906 38.78125 C 84.828125 38.78125 78.480469 45.128906 78.480469 52.933594 C 78.480469 56.253906 79.84375 59.257812 81.179688 61.757812 C 81.660156 62.652344 82.175781 63.539062 82.722656 64.394531 C 82.914062 64.695312 83.128906 65 83.359375 65.320312 C 84.476562 66.890625 85.871094 68.847656 85.957031 72.632812 L 85.957031 74.085938 C 85.957031 75.445312 87.0625 76.554688 88.421875 76.554688 L 96.839844 76.554688 C 98.199219 76.554688 99.308594 75.445312 99.308594 74.085938 L 99.308594 72.425781 C 99.4375 68.777344 100.796875 66.863281 101.894531 65.324219 C 102.125 65 102.34375 64.695312 102.535156 64.394531 C 103.894531 62.261719 104.84375 60.492188 105.519531 58.832031 C 105.988281 57.679688 106.316406 56.601562 106.527344 55.539062 C 106.695312 54.703125 106.78125 53.824219 106.78125 52.933594 C 106.78125 45.128906 100.433594 38.78125 92.628906 38.78125 Z M 96.839844 78.242188 L 88.421875 78.242188 C 86.128906 78.242188 84.265625 76.378906 84.265625 74.085938 L 84.265625 72.652344 C 84.191406 69.40625 83.070312 67.828125 81.984375 66.300781 C 81.742188 65.960938 81.511719 65.640625 81.296875 65.300781 C 80.730469 64.410156 80.1875 63.484375 79.691406 62.554688 C 78.257812 59.867188 76.789062 56.625 76.789062 52.933594 C 76.789062 44.199219 83.898438 37.09375 92.628906 37.09375 C 101.363281 37.09375 108.46875 44.199219 108.46875 52.933594 C 108.46875 53.9375 108.375 54.925781 108.183594 55.871094 C 107.953125 57.035156 107.59375 58.214844 107.085938 59.46875 C 106.367188 61.226562 105.375 63.082031 103.960938 65.300781 C 103.742188 65.640625 103.515625 65.960938 103.269531 66.304688 C 102.207031 67.796875 101.109375 69.339844 100.996094 72.46875 L 100.996094 74.085938 C 100.996094 76.378906 99.132812 78.242188 96.839844 78.242188 " fill-opacity="1" fill-rule="nonzero"/></g><g clip-path="url(#cf9d817763)"><path fill="#145da0" d="M 87.207031 86.714844 L 90.457031 88.28125 C 91.65625 88.863281 93.605469 88.863281 94.804688 88.28125 L 98.054688 86.714844 L 87.207031 86.714844 " fill-opacity="1" fill-rule="nonzero"/></g><path fill="#145da0" d="M 98.714844 86.160156 C 98.714844 86.625 98.335938 87.007812 97.871094 87.007812 L 87.390625 87.007812 C 86.925781 87.007812 86.546875 86.625 86.546875 86.160156 C 86.546875 85.691406 86.925781 85.3125 87.390625 85.3125 L 97.871094 85.3125 C 98.335938 85.3125 98.714844 85.691406 98.714844 86.160156 " fill-opacity="1" fill-rule="nonzero"/><path fill="#145da0" d="M 99.417969 83.726562 C 99.417969 84.195312 99.039062 84.570312 98.570312 84.570312 L 86.691406 84.570312 C 86.222656 84.570312 85.84375 84.195312 85.84375 83.726562 C 85.84375 83.257812 86.222656 82.878906 86.691406 82.878906 L 98.570312 82.878906 C 99.039062 82.878906 99.417969 83.257812 99.417969 83.726562 " fill-opacity="1" fill-rule="nonzero"/><path fill="#145da0" d="M 99.417969 81.292969 C 99.417969 81.757812 99.039062 82.136719 98.570312 82.136719 L 86.691406 82.136719 C 86.222656 82.136719 85.84375 81.757812 85.84375 81.292969 C 85.84375 80.824219 86.222656 80.445312 86.691406 80.445312 L 98.570312 80.445312 C 99.039062 80.445312 99.417969 80.824219 99.417969 81.292969 " fill-opacity="1" fill-rule="nonzero"/><path fill="#145da0" d="M 100.152344 78.859375 C 100.152344 79.324219 99.773438 79.703125 99.308594 79.703125 L 85.953125 79.703125 C 85.488281 79.703125 85.109375 79.324219 85.109375 78.859375 C 85.109375 78.390625 85.488281 78.011719 85.953125 78.011719 L 99.308594 78.011719 C 99.773438 78.011719 100.152344 78.390625 100.152344 78.859375 " fill-opacity="1" fill-rule="nonzero"/></svg>