<svg xmlns="http://www.w3.org/2000/svg" xmlns:xlink="http://www.w3.org/1999/xlink" width="691" zoomAndPan="magnify" viewBox="0 0 518.25 284.250005" height="379" preserveAspectRatio="xMidYMid meet" version="1.0"><defs><g/><clipPath id="cc956160b0"><path d="M 191.515625 92.066406 L 269.785156 92.066406 L 269.785156 195 L 191.515625 195 Z M 191.515625 92.066406 " clip-rule="nonzero"/></clipPath><clipPath id="0ba8f6e12d"><path d="M 217 215 L 245 215 L 245 220.648438 L 217 220.648438 Z M 217 215 " clip-rule="nonzero"/></clipPath></defs><g fill="#000000" fill-opacity="1"><g transform="translate(71.533975, 176.846676)"><g><path d="M 12.25 0 L 12.25 -82.46875 L 23.4375 -82.46875 L 23.4375 0 Z M 12.25 0 "/></g></g></g><g fill="#000000" fill-opacity="1"><g transform="translate(107.230714, 176.846676)"><g><path d="M 12.25 0 L 12.25 -73.984375 L 20.734375 -82.46875 L 68.921875 -82.46875 L 77.515625 -73.984375 L 77.515625 0 L 66.328125 0 L 66.328125 -68.921875 L 62.5625 -72.578125 L 27.09375 -72.578125 L 23.4375 -68.921875 L 23.4375 0 Z M 12.25 0 "/></g></g></g><g fill="#000000" fill-opacity="1"><g transform="translate(196.886383, 176.846676)"><g/></g></g><g fill="#000000" fill-opacity="1"><g transform="translate(231.522822, 176.846676)"><g/></g></g><g fill="#000000" fill-opacity="1"><g transform="translate(266.1869, 176.846676)"><g><path d="M 34.75 0 L 12.25 -22.5 L 12.25 -82.46875 L 23.4375 -82.46875 L 23.4375 -26.265625 L 39.828125 -9.890625 L 49.953125 -9.890625 L 66.328125 -26.265625 L 66.328125 -82.46875 L 77.515625 -82.46875 L 77.515625 -22.5 L 54.90625 0 Z M 34.75 0 "/></g></g></g><g fill="#000000" fill-opacity="1"><g transform="translate(355.841091, 176.846676)"><g><path d="M 12.25 0 L 12.25 -73.984375 L 20.734375 -82.46875 L 68.921875 -82.46875 L 77.515625 -73.984375 L 77.515625 0 L 66.328125 0 L 66.328125 -27.796875 L 23.4375 -27.796875 L 23.4375 0 Z M 23.4375 -37.703125 L 66.328125 -37.703125 L 66.328125 -68.921875 L 62.5625 -72.578125 L 27.09375 -72.578125 L 23.4375 -68.921875 Z M 23.4375 -37.703125 "/></g></g></g><g clip-path="url(#cc956160b0)"><path fill="#145da0" d="M 231.023438 96.253906 C 211.585938 96.253906 195.777344 112.066406 195.777344 131.5 C 195.777344 139.769531 199.179688 147.25 202.503906 153.480469 C 203.695312 155.707031 204.984375 157.914062 206.339844 160.042969 C 206.820312 160.792969 207.359375 161.550781 207.929688 162.355469 C 210.714844 166.269531 214.183594 171.140625 214.394531 180.5625 L 214.394531 184.1875 C 214.394531 187.574219 217.152344 190.328125 220.539062 190.328125 L 241.503906 190.328125 C 244.894531 190.328125 247.648438 187.574219 247.648438 184.1875 L 247.648438 180.121094 L 247.652344 180.050781 C 247.96875 170.96875 251.367188 166.195312 254.097656 162.363281 C 254.667969 161.558594 255.210938 160.796875 255.691406 160.042969 C 259.078125 154.730469 261.441406 150.328125 263.125 146.191406 C 264.289062 143.320312 265.113281 140.636719 265.636719 137.992188 C 266.054688 135.90625 266.269531 133.722656 266.269531 131.5 C 266.269531 112.066406 250.457031 96.253906 231.023438 96.253906 Z M 241.503906 194.539062 L 220.539062 194.539062 C 214.832031 194.539062 210.1875 189.894531 210.1875 184.1875 L 210.1875 180.609375 C 210.007812 172.527344 207.207031 168.59375 204.503906 164.792969 C 203.898438 163.945312 203.332031 163.148438 202.792969 162.304688 C 201.378906 160.085938 200.035156 157.785156 198.792969 155.464844 C 195.222656 148.773438 191.566406 140.699219 191.566406 131.5 C 191.566406 109.742188 209.269531 92.046875 231.023438 92.046875 C 252.773438 92.046875 270.472656 109.742188 270.472656 131.5 C 270.472656 134 270.234375 136.460938 269.761719 138.8125 C 269.1875 141.71875 268.289062 144.65625 267.023438 147.777344 C 265.238281 152.160156 262.765625 156.773438 259.238281 162.304688 C 258.699219 163.148438 258.128906 163.953125 257.523438 164.800781 C 254.875 168.519531 252.136719 172.367188 251.855469 180.160156 L 251.855469 184.1875 C 251.855469 189.894531 247.214844 194.539062 241.503906 194.539062 " fill-opacity="1" fill-rule="nonzero"/></g><g clip-path="url(#0ba8f6e12d)"><path fill="#145da0" d="M 217.515625 215.640625 L 225.601562 219.542969 C 228.597656 220.988281 233.449219 220.988281 236.441406 219.542969 L 244.527344 215.640625 L 217.515625 215.640625 " fill-opacity="1" fill-rule="nonzero"/></g><path fill="#145da0" d="M 246.175781 214.257812 C 246.175781 215.421875 245.234375 216.363281 244.070312 216.363281 L 217.972656 216.363281 C 216.808594 216.363281 215.867188 215.421875 215.867188 214.257812 C 215.867188 213.09375 216.808594 212.152344 217.972656 212.152344 L 244.070312 212.152344 C 245.234375 212.152344 246.175781 213.09375 246.175781 214.257812 " fill-opacity="1" fill-rule="nonzero"/><path fill="#145da0" d="M 247.925781 208.195312 C 247.925781 209.359375 246.980469 210.300781 245.816406 210.300781 L 216.226562 210.300781 C 215.0625 210.300781 214.117188 209.359375 214.117188 208.195312 C 214.117188 207.03125 215.0625 206.085938 216.226562 206.085938 L 245.816406 206.085938 C 246.980469 206.085938 247.925781 207.03125 247.925781 208.195312 " fill-opacity="1" fill-rule="nonzero"/><path fill="#145da0" d="M 247.925781 202.132812 C 247.925781 203.296875 246.980469 204.242188 245.816406 204.242188 L 216.226562 204.242188 C 215.0625 204.242188 214.117188 203.296875 214.117188 202.132812 C 214.117188 200.96875 215.0625 200.023438 216.226562 200.023438 L 245.816406 200.023438 C 246.980469 200.023438 247.925781 200.96875 247.925781 202.132812 " fill-opacity="1" fill-rule="nonzero"/><path fill="#145da0" d="M 249.757812 196.070312 C 249.757812 197.234375 248.816406 198.175781 247.652344 198.175781 L 214.390625 198.175781 C 213.230469 198.175781 212.285156 197.234375 212.285156 196.070312 C 212.285156 194.910156 213.230469 193.964844 214.390625 193.964844 L 247.652344 193.964844 C 248.816406 193.964844 249.757812 194.910156 249.757812 196.070312 " fill-opacity="1" fill-rule="nonzero"/><g fill="#000000" fill-opacity="1"><g transform="translate(258.548433, 211.570122)"><g><path d="M 5.109375 0 L 2.8125 -2.328125 L 2.8125 -7.984375 L 4.03125 -9.203125 L 13.765625 -9.203125 L 13.765625 -12.5625 L 12.78125 -13.546875 L 6.578125 -13.546875 L 5.59375 -12.5625 L 5.59375 -10.828125 L 2.8125 -10.828125 L 2.8125 -13.671875 L 5.109375 -15.96875 L 14.25 -15.96875 L 16.578125 -13.671875 L 16.578125 -2.328125 L 14.375 0 Z M 5.59375 -3.453125 L 6.578125 -2.421875 L 12.78125 -2.421875 L 13.765625 -3.453125 L 13.765625 -7.125 L 6.109375 -7.125 L 5.59375 -6.609375 Z M 5.59375 -3.453125 "/></g></g></g><g fill="#000000" fill-opacity="1"><g transform="translate(277.911705, 211.570122)"><g><path d="M 5.625 0 L 3.328125 -2.328125 L 3.328125 -15.96875 L 6.109375 -15.96875 L 6.109375 -3.453125 L 7.125 -2.421875 L 13.296875 -2.421875 L 14.3125 -3.453125 L 14.3125 -15.96875 L 17.09375 -15.96875 L 17.09375 -2.328125 L 14.796875 0 Z M 5.625 0 "/></g></g></g><g fill="#000000" fill-opacity="1"><g transform="translate(298.329415, 211.570122)"><g><path d="M 5.625 0 L 3.328125 -2.328125 L 3.328125 -13.546875 L 0.921875 -13.546875 L 0.921875 -15.96875 L 3.328125 -15.96875 L 3.328125 -19.171875 L 6.109375 -19.171875 L 6.109375 -15.96875 L 10.890625 -15.96875 L 10.890625 -13.546875 L 6.109375 -13.546875 L 6.109375 -3.453125 L 7.125 -2.421875 L 10.890625 -2.421875 L 10.890625 0 Z M 5.625 0 "/></g></g></g><g fill="#000000" fill-opacity="1"><g transform="translate(310.599212, 211.570122)"><g><path d="M 5.109375 0 L 2.8125 -2.328125 L 2.8125 -13.671875 L 5.109375 -15.96875 L 14.25 -15.96875 L 16.578125 -13.671875 L 16.578125 -2.328125 L 14.15625 0 Z M 5.59375 -3.453125 L 6.578125 -2.421875 L 12.78125 -2.421875 L 13.765625 -3.453125 L 13.765625 -12.5625 L 12.78125 -13.546875 L 6.578125 -13.546875 L 5.59375 -12.5625 Z M 5.59375 -3.453125 "/></g></g></g><g fill="#000000" fill-opacity="1"><g transform="translate(329.962484, 211.570122)"><g><path d="M 12.171875 0 L 12.171875 -12.5625 L 11.15625 -13.546875 L 7.125 -13.546875 L 6.109375 -12.5625 L 6.109375 0 L 3.328125 0 L 3.328125 -13.671875 L 5.625 -15.96875 L 11.796875 -15.96875 L 13.546875 -14.21875 L 15.3125 -15.96875 L 21.5 -15.96875 L 23.8125 -13.671875 L 23.8125 0 L 21.03125 0 L 21.03125 -12.5625 L 20 -13.546875 L 15.9375 -13.546875 L 14.953125 -12.5625 L 14.953125 0 Z M 12.171875 0 "/></g></g></g><g fill="#000000" fill-opacity="1"><g transform="translate(357.09024, 211.570122)"><g><path d="M 5.109375 0 L 2.8125 -2.328125 L 2.8125 -7.984375 L 4.03125 -9.203125 L 13.765625 -9.203125 L 13.765625 -12.5625 L 12.78125 -13.546875 L 6.578125 -13.546875 L 5.59375 -12.5625 L 5.59375 -10.828125 L 2.8125 -10.828125 L 2.8125 -13.671875 L 5.109375 -15.96875 L 14.25 -15.96875 L 16.578125 -13.671875 L 16.578125 -2.328125 L 14.375 0 Z M 5.59375 -3.453125 L 6.578125 -2.421875 L 12.78125 -2.421875 L 13.765625 -3.453125 L 13.765625 -7.125 L 6.109375 -7.125 L 5.59375 -6.609375 Z M 5.59375 -3.453125 "/></g></g></g><g fill="#000000" fill-opacity="1"><g transform="translate(376.453512, 211.570122)"><g><path d="M 5.109375 0 L 2.8125 -2.328125 L 2.8125 -13.671875 L 5.109375 -15.96875 L 14.375 -15.96875 L 16.671875 -13.671875 L 16.671875 -10.484375 L 13.90625 -10.484375 L 13.90625 -12.5625 L 12.875 -13.546875 L 6.578125 -13.546875 L 5.59375 -12.5625 L 5.59375 -3.453125 L 6.578125 -2.421875 L 12.875 -2.421875 L 13.90625 -3.453125 L 13.90625 -5.53125 L 16.671875 -5.53125 L 16.671875 -2.328125 L 14.375 0 L 10.640625 0 L 10.640625 1.09375 L 11.625 1.09375 L 12.75 2.203125 L 12.75 4.953125 L 11.21875 6.484375 L 8.3125 6.484375 L 6.734375 4.953125 L 6.734375 3.328125 L 8.34375 3.328125 L 8.34375 4.3125 L 8.953125 4.890625 L 10.546875 4.890625 L 11.15625 4.3125 L 11.15625 2.8125 L 10.578125 2.203125 L 8.84375 2.203125 L 8.84375 0 Z M 5.109375 0 "/></g></g></g><g fill="#000000" fill-opacity="1"><g transform="translate(395.944599, 211.570122)"><g><path d="M 5.109375 0 L 2.8125 -2.328125 L 2.8125 -7.984375 L 4.03125 -9.203125 L 13.765625 -9.203125 L 13.765625 -12.5625 L 12.78125 -13.546875 L 6.578125 -13.546875 L 5.59375 -12.5625 L 5.59375 -10.828125 L 2.8125 -10.828125 L 2.8125 -13.671875 L 5.109375 -15.96875 L 14.25 -15.96875 L 16.578125 -13.671875 L 16.578125 -2.328125 L 14.375 0 Z M 5.109375 -19.171875 L 5.109375 -20.96875 L 7.03125 -22.59375 L 11.53125 -21.0625 L 12.140625 -21.5625 L 12.140625 -22.296875 L 14.4375 -22.296875 L 14.4375 -20.484375 L 12.625 -18.859375 L 8.015625 -20.421875 L 7.40625 -19.90625 L 7.40625 -19.171875 Z M 5.59375 -3.453125 L 6.578125 -2.421875 L 12.78125 -2.421875 L 13.765625 -3.453125 L 13.765625 -7.125 L 6.109375 -7.125 L 5.59375 -6.609375 Z M 5.59375 -3.453125 "/></g></g></g><g fill="#000000" fill-opacity="1"><g transform="translate(415.307871, 211.570122)"><g><path d="M 5.109375 0 L 2.8125 -2.328125 L 2.8125 -13.671875 L 5.109375 -15.96875 L 14.25 -15.96875 L 16.578125 -13.671875 L 16.578125 -2.328125 L 14.15625 0 Z M 5.59375 -3.453125 L 6.578125 -2.421875 L 12.78125 -2.421875 L 13.765625 -3.453125 L 13.765625 -12.5625 L 12.78125 -13.546875 L 6.578125 -13.546875 L 5.59375 -12.5625 Z M 5.59375 -3.453125 "/></g></g></g></svg>