<svg xmlns="http://www.w3.org/2000/svg" xmlns:xlink="http://www.w3.org/1999/xlink" width="259" zoomAndPan="magnify" viewBox="0 0 194.25 325.500004" height="434" preserveAspectRatio="xMidYMid meet" version="1.0"><defs><g/><clipPath id="2bf7697883"><path d="M 0 8.914062 L 192.753906 8.914062 L 192.753906 260 L 0 260 Z M 0 8.914062 " clip-rule="nonzero"/></clipPath></defs><g clip-path="url(#2bf7697883)"><path fill="#145da0" d="M 96.585938 19.152344 C 49.070312 19.152344 10.414062 57.808594 10.414062 105.320312 C 10.414062 125.542969 18.734375 143.832031 26.863281 159.0625 C 29.777344 164.503906 32.929688 169.902344 36.242188 175.109375 C 37.414062 176.941406 38.730469 178.792969 40.128906 180.757812 C 46.941406 190.328125 55.421875 202.234375 55.9375 225.273438 L 55.9375 234.132812 C 55.9375 242.414062 62.675781 249.152344 70.960938 249.152344 L 122.214844 249.152344 C 130.5 249.152344 137.238281 242.414062 137.238281 234.132812 L 137.238281 224.195312 L 137.242188 224.019531 C 138.023438 201.816406 146.324219 190.152344 152.996094 180.78125 C 154.398438 178.808594 155.71875 176.949219 156.898438 175.105469 C 165.179688 162.121094 170.953125 151.359375 175.070312 141.242188 C 177.921875 134.222656 179.933594 127.664062 181.214844 121.195312 C 182.238281 116.097656 182.757812 110.757812 182.757812 105.320312 C 182.757812 57.808594 144.097656 19.152344 96.585938 19.152344 Z M 122.214844 259.441406 L 70.960938 259.441406 C 57 259.441406 45.648438 248.089844 45.648438 234.132812 L 45.648438 225.390625 C 45.207031 205.625 38.367188 196.015625 31.75 186.722656 C 30.277344 184.652344 28.882812 182.695312 27.566406 180.636719 C 24.113281 175.210938 20.824219 169.582031 17.789062 163.914062 C 9.058594 147.554688 0.128906 127.808594 0.128906 105.320312 C 0.128906 52.132812 43.402344 8.863281 96.585938 8.863281 C 149.769531 8.863281 193.039062 52.132812 193.039062 105.320312 C 193.039062 111.4375 192.453125 117.453125 191.300781 123.203125 C 189.894531 130.308594 187.699219 137.484375 184.601562 145.117188 C 180.242188 155.832031 174.195312 167.117188 165.570312 180.632812 C 164.253906 182.703125 162.855469 184.664062 161.378906 186.742188 C 154.90625 195.835938 148.210938 205.234375 147.523438 224.289062 L 147.523438 234.132812 C 147.523438 248.089844 136.171875 259.441406 122.214844 259.441406 " fill-opacity="1" fill-rule="nonzero"/></g><path fill="#145da0" d="M 63.566406 311.035156 L 83.335938 320.574219 C 90.65625 324.105469 102.515625 324.105469 109.832031 320.574219 L 129.605469 311.035156 L 63.566406 311.035156 " fill-opacity="1" fill-rule="nonzero"/><path fill="#145da0" d="M 133.632812 307.65625 C 133.632812 310.496094 131.335938 312.804688 128.484375 312.804688 L 64.6875 312.804688 C 61.839844 312.804688 59.535156 310.496094 59.535156 307.65625 C 59.535156 304.804688 61.839844 302.503906 64.6875 302.503906 L 128.484375 302.503906 C 131.335938 302.503906 133.632812 304.804688 133.632812 307.65625 " fill-opacity="1" fill-rule="nonzero"/><path fill="#145da0" d="M 137.910156 292.828125 C 137.910156 295.679688 135.601562 297.984375 132.757812 297.984375 L 60.414062 297.984375 C 57.570312 297.984375 55.261719 295.679688 55.261719 292.828125 C 55.261719 289.984375 57.570312 287.679688 60.414062 287.679688 L 132.757812 287.679688 C 135.601562 287.679688 137.910156 289.984375 137.910156 292.828125 " fill-opacity="1" fill-rule="nonzero"/><path fill="#145da0" d="M 137.910156 278.007812 C 137.910156 280.851562 135.601562 283.164062 132.757812 283.164062 L 60.414062 283.164062 C 57.570312 283.164062 55.261719 280.851562 55.261719 278.007812 C 55.261719 275.164062 57.570312 272.855469 60.414062 272.855469 L 132.757812 272.855469 C 135.601562 272.855469 137.910156 275.164062 137.910156 278.007812 " fill-opacity="1" fill-rule="nonzero"/><path fill="#145da0" d="M 142.394531 263.191406 C 142.394531 266.03125 140.085938 268.335938 137.242188 268.335938 L 55.925781 268.335938 C 53.085938 268.335938 50.777344 266.03125 50.777344 263.191406 C 50.777344 260.347656 53.085938 258.039062 55.925781 258.039062 L 137.242188 258.039062 C 140.085938 258.039062 142.394531 260.347656 142.394531 263.191406 " fill-opacity="1" fill-rule="nonzero"/><g fill="#000000" fill-opacity="1"><g transform="translate(90.295632, 69.973356)"><g><path d="M 4.828125 0 L 4.828125 -32.453125 L 9.21875 -32.453125 L 9.21875 0 Z M 4.828125 0 "/></g></g></g><g fill="#000000" fill-opacity="1"><g transform="translate(79.670514, 108.768124)"><g><path d="M 4.828125 0 L 4.828125 -29.125 L 8.15625 -32.46875 L 27.125 -32.46875 L 30.515625 -29.125 L 30.515625 0 L 26.109375 0 L 26.109375 -27.125 L 24.625 -28.5625 L 10.671875 -28.5625 L 9.234375 -27.125 L 9.234375 0 Z M 4.828125 0 "/></g></g></g><g fill="#000000" fill-opacity="1"><g transform="translate(81.155813, 147.915283)"><g><path d="M 7.421875 0 L 4.078125 -3.390625 L 4.078125 -29.125 L 7.421875 -32.46875 L 26.390625 -32.46875 L 29.71875 -29.125 L 29.71875 -3.390625 L 26.390625 0 Z M 8.484375 -5.328125 L 9.921875 -3.890625 L 23.890625 -3.890625 L 25.328125 -5.328125 L 25.328125 -27.125 L 23.890625 -28.5625 L 9.921875 -28.5625 L 8.484375 -27.125 Z M 8.484375 -5.328125 "/></g></g></g><g fill="#000000" fill-opacity="1"><g transform="translate(81.155813, 185.838215)"><g><path d="M 13.6875 0 L 4.828125 -8.859375 L 4.828125 -32.46875 L 9.234375 -32.46875 L 9.234375 -10.34375 L 15.671875 -3.890625 L 19.65625 -3.890625 L 26.109375 -10.34375 L 26.109375 -32.46875 L 30.515625 -32.46875 L 30.515625 -8.859375 L 21.609375 0 Z M 13.6875 0 "/></g></g></g><g fill="#000000" fill-opacity="1"><g transform="translate(80.413164, 225.924922)"><g><path d="M 4.828125 0 L 4.828125 -29.125 L 8.15625 -32.46875 L 27.125 -32.46875 L 30.515625 -29.125 L 30.515625 0 L 26.109375 0 L 26.109375 -10.9375 L 9.234375 -10.9375 L 9.234375 0 Z M 9.234375 -14.84375 L 26.109375 -14.84375 L 26.109375 -27.125 L 24.625 -28.5625 L 10.671875 -28.5625 L 9.234375 -27.125 Z M 9.234375 -14.84375 "/></g></g></g></svg>